<?xml version="1.0" encoding="utf-8"?>
<!-- Generator: Adobe Illustrator 19.0.0, SVG Export Plug-In . SVG Version: 6.00 Build 0)  -->
<svg version="1.1" id="layer" xmlns="http://www.w3.org/2000/svg" xmlns:xlink="http://www.w3.org/1999/xlink" x="0px" y="0px"
	 viewBox="-153 -46 652 652" style="enable-background:new -153 -46 652 652;" xml:space="preserve">
<style type="text/css">
	.st0{fill:#414042;}
	.st1{fill:#76E5FF;}
	.st2{fill:#00C9FF;}
</style>
<path d="M55.3,229.3c0.8,0,1.6,0,2-0.4c0.4-0.4,0.8-0.8,0.8-1.6c0-0.4,0-0.8-0.4-1.2c0-0.4-0.4-0.4-0.8-0.8c-0.4,0-0.4-0.4-0.8-0.4
	c-0.4,0-0.8-0.4-1.2-0.4c-0.4,0-0.8-0.4-1.2-0.4c-0.4-0.4-0.8-0.4-0.8-0.8c-0.4-0.4-0.4-0.4-0.8-0.8c0-0.4-0.4-0.8-0.4-1.2
	c0-1.2,0.4-1.6,1.2-2.4c0.8-0.4,1.6-0.8,2.8-0.8c0.4,0,0.8,0,0.8,0c0.4,0,0.4,0,0.8,0c0.4,0,0.4,0,0.8,0.4c0.4,0,0.4,0,0.4,0.4
	l0,0.8c-0.4-0.4-0.8-0.4-1.2-0.4c-0.4,0-0.8-0.4-1.6-0.4c-0.4,0-0.8,0-1.2,0c-0.4,0-0.4,0-0.8,0.4c-0.4,0-0.4,0.4-0.4,0.8
	c0,0.4,0,0.4,0,0.8s0,0.8,0.4,0.8c0,0.4,0.4,0.4,0.4,0.8c0.4,0,0.4,0.4,0.8,0.4c0.4,0,0.8,0.4,1.2,0.4c0.4,0,0.8,0.4,1.2,0.4
	c0.4,0,0.8,0.4,1.2,0.8c0.4,0.4,0.4,0.4,0.8,0.8c0,0.4,0.4,0.8,0.4,1.2c0,1.2-0.4,2-1.2,2.4c-0.8,0.4-1.6,0.8-3.2,0.8
	c-0.4,0-0.8,0-1.2,0c-0.4,0-0.8,0-1.2-0.4c-0.4,0-0.4,0-0.8-0.4c-0.4,0-0.4,0-0.4-0.4l0.4-1.2c0,0,0.4,0,0.4,0.4c0,0,0.4,0,0.8,0.4
	c0.4,0,0.4,0,0.8,0.4C54.5,229.3,54.9,229.3,55.3,229.3z"/>
<path d="M66.6,228.5c0-0.4-0.4-0.8-0.4-1.2c0-0.4-0.4-0.8-0.8-1.6c-0.4-0.4-0.4-1.2-0.8-1.6c-0.4-0.4-0.4-1.2-0.8-1.6
	c-0.4-0.4-0.4-0.8-0.8-1.2c0-0.4-0.4-0.8-0.4-0.8c0,1.6-0.4,2.8-0.4,4.9c0,1.6,0,3.6-0.4,5.3h-1.2c0-2,0.4-4.4,0.4-6.1
	c0-2,0.4-4,0.4-5.7h1.2c0.4,0.4,0.8,1.2,1.2,2s0.8,1.6,1.2,2.4s0.8,1.6,1.2,2.4c0.4,0.8,0.8,1.6,0.8,2c0.4-0.8,0.4-1.2,0.8-2
	c0.4-0.8,0.8-1.6,1.2-2.4c0.4-0.8,0.8-1.6,1.2-2.4c0.4-0.8,0.8-1.6,1.2-2h0.8c0,2,0.4,3.6,0.4,5.7s0.4,4,0.4,6.1h-0.8
	c0-2,0-3.6-0.4-5.3c0-1.6-0.4-3.2-0.4-4.9c0,0-0.4,0.4-0.4,0.8s-0.4,0.8-0.8,1.2c-0.4,0.4-0.4,1.2-0.8,1.6c-0.4,0.4-0.4,1.2-0.8,1.6
	c-0.4,0.4-0.4,1.2-0.8,1.6c-0.4,0.4-0.4,0.8-0.4,1.2C67.4,228.5,66.6,228.5,66.6,228.5z"/>
<path class="st0" d="M134.5,255.2h28.3v11.3h-28.3v34c0,3.6,0.4,6.9,0.8,9.3c0.4,2.4,1.6,4.4,2.4,5.7c1.2,1.2,2.4,2.4,4.4,2.8
	c1.6,0.4,3.6,0.8,6.1,0.8c4,0,7.3-0.4,9.7-1.2c2.4-0.8,4-1.6,5.3-2l2.4,10.9c-1.2,0.8-3.6,1.6-6.9,2.4c-3.2,0.8-7.3,1.6-11.3,1.6
	c-4.9,0-9.3-0.8-12.5-2c-3.2-1.2-6.1-3.2-8.1-5.7c-2-2.4-3.2-5.7-4-9.3c-0.8-3.6-1.2-8.1-1.2-12.9v-66.3l13.3-2.4v23H134.5z
	 M176.6,329.2V220.8l13.3-2.4v38c2.4-0.8,5.3-1.6,8.1-2c2.8-0.4,5.7-0.8,8.5-0.8c6.1,0,10.9,0.8,14.6,2.4c4,1.6,6.9,4,9.3,6.9
	c2.4,2.8,4,6.5,4.9,10.9c0.8,4,1.6,8.9,1.6,13.7v41.6h-13.3v-38.8c0-4.4-0.4-8.5-0.8-11.7c-0.8-3.2-1.6-5.7-3.2-7.7
	c-1.6-2-3.2-3.6-5.7-4.4c-2.4-0.8-5.3-1.2-8.9-1.2c-1.6,0-2.8,0-4.4,0.4c-1.6,0-2.8,0.4-4.4,0.8c-1.2,0.4-2.4,0.4-3.6,0.8
	c-1.2,0.4-2,0.4-2.4,0.8V330h-13.3V329.2z M282.9,253.6c1.2,0,2.4,0,4,0.4c1.6,0,2.8,0.4,4.4,0.4c1.6,0.4,2.8,0.4,4,0.8
	c1.2,0.4,2,0.4,2.8,0.8l-2.4,11.7c-1.2-0.4-2.8-0.8-5.3-1.2c-2.4-0.4-5.7-0.8-9.3-0.8c-2.4,0-4.9,0.4-7.3,0.8
	c-2.4,0.4-4,0.8-4.9,1.2V330h-13.3v-71.6c3.2-1.2,6.9-2,11.7-3.2C271.6,254,276.9,253.6,282.9,253.6z M314,241.9
	c-2.4,0-4.4-0.8-6.1-2.4c-1.6-1.6-2.4-3.6-2.4-6.5c0-2.8,0.8-4.9,2.4-6.5c1.6-1.6,3.6-2.4,6.1-2.4s4.4,0.8,6.1,2.4s2.4,3.6,2.4,6.5
	c0,2.8-0.8,4.9-2.4,6.5S316.5,241.9,314,241.9z M320.9,329.2h-13.3v-74h13.3V329.2z M399,255.2c-3.6,13.7-8.1,27.1-12.9,40
	c-4.9,12.9-9.7,24.3-14.6,34.4h-12.1c-4.9-10.1-9.3-21.4-14.6-34.4c-4.9-12.9-9.3-26.3-12.9-40H346c1.2,4.9,2.4,9.7,4,15
	c1.6,5.3,3.2,10.5,4.9,15.8c1.6,5.3,3.6,10.1,5.3,15c1.6,4.9,3.6,9.3,5.3,12.9c1.6-3.6,3.2-8.1,5.3-12.9c1.6-4.9,3.6-9.7,5.3-15
	s3.2-10.5,4.9-15.8c1.6-5.3,2.8-10.1,4-15C384.8,255.2,399,255.2,399,255.2z M403.8,292.4c0-6.5,0.8-12.1,2.8-17.4
	c2-4.9,4.4-8.9,7.7-12.1c3.2-3.2,6.9-5.7,10.9-7.3c4-1.6,8.1-2.4,12.5-2.4c10.1,0,17.8,3.2,23,9.3c5.3,6.1,8.1,15.8,8.1,28.3
	c0,0.4,0,1.2,0,2s0,1.6,0,2.4H418c0.4,7.7,2.8,13.7,6.9,17.4c4,4,10.1,6.1,18.2,6.1c4.9,0,8.5-0.4,11.7-1.2c3.2-0.8,5.7-1.6,7.3-2.4
	l2,11.3c-1.6,0.8-4.4,1.6-8.5,2.8c-4,0.8-8.5,1.6-13.7,1.6c-6.5,0-12.1-0.8-17-2.8c-4.9-2-8.5-4.4-11.7-8.1
	c-3.2-3.2-5.3-7.7-6.9-12.1C404.2,303.3,403.8,298.1,403.8,292.4z M454.7,285.1c0-6.1-1.2-10.9-4.4-15c-3.2-4-7.3-5.7-12.9-5.7
	c-3.2,0-5.7,0.4-8.1,1.6c-2.4,1.2-4.4,2.8-6.1,4.4c-1.6,2-2.8,4-3.6,6.5c-0.8,2.4-1.6,4.9-1.6,7.7h36.8V285.1z"/>
<polygon class="st1" points="79.1,329.6 79.1,278.2 -26,165.8 -26,241.4 "/>
<polygon class="st2" points="-131.1,329.6 -131.1,278.2 -26,165.8 -26,241.4 "/>
<polygon class="st1" points="-131.1,278.2 -131.1,329.6 -43.4,383.4 -43.4,286.7 "/>
<polygon class="st2" points="79.1,278.2 79.1,329.6 -9.4,383.4 -9.4,286.7 "/>
</svg>
